<svg width="32" height="32" viewBox="0 0 32 32" fill="none" xmlns="http://www.w3.org/2000/svg">
<g clip-path="url(#clip0_57_24)">
<path d="M16 31C24.2843 31 31 24.2843 31 16C31 7.71573 24.2843 1 16 1C7.71573 1 1 7.71573 1 16C1 24.2843 7.71573 31 16 31Z" stroke="#7B4AE2" stroke-opacity="0.501961" stroke-width="2"/>
<path d="M18.291 16C18.291 16.3008 18.2317 16.5986 18.1165 16.8765C18.0014 17.1544 17.8326 17.4069 17.6199 17.6196C17.4071 17.8323 17.1546 18.0009 16.8766 18.1159C16.5987 18.231 16.3008 18.2901 16 18.29C15.3926 18.29 14.8101 18.0487 14.3807 17.6192C13.9512 17.1898 13.71 16.6073 13.71 16C13.71 15.3925 13.9513 14.8099 14.3808 14.3803C14.8104 13.9508 15.393 13.7095 16.0005 13.7095C16.6079 13.7095 17.1905 13.9508 17.6201 14.3803C18.0496 14.8099 18.291 15.3925 18.291 16Z" fill="#140730" fill-opacity="0.62"/>
<path d="M26.168 10.129C25.6697 9.27218 25.0649 8.48189 24.368 7.77702L21.721 9.30502C20.9044 8.60783 19.9674 8.0656 18.956 7.70502C18.0721 8.59179 17.3482 9.62466 16.816 10.758C20.0353 10.6512 23.1789 11.7471 25.634 13.832L27.3 12.87C27.0396 11.9128 26.6589 10.9925 26.167 10.131L26.168 10.129Z" fill="#350E88" fill-opacity="0.501961"/>
<path d="M26.169 21.869C26.6618 21.0093 27.0439 20.0907 27.306 19.135L24.658 17.606C24.8547 16.5486 24.8564 15.4641 24.663 14.406C23.4531 14.0839 22.1966 13.9732 20.949 14.079C22.6539 16.8145 23.2781 20.0871 22.7 23.258L24.366 24.22C25.0638 23.5156 25.6697 22.7257 26.169 21.869Z" fill="#7B4AE2" fill-opacity="0.501961"/>
<path d="M16 27.74C16.9912 27.7372 17.9781 27.6088 18.937 27.358V24.3C19.9496 23.9421 20.8884 23.4023 21.707 22.707C21.381 21.4981 20.8485 20.3546 20.133 19.327C18.616 22.1685 16.0952 24.3431 13.062 25.427V27.351C14.021 27.6043 15.0082 27.735 16 27.74Z" fill="#350E88" fill-opacity="0.501961"/>
<path d="M5.83395 21.87C6.33227 22.7269 6.93708 23.5171 7.63395 24.222L10.282 22.693C11.0985 23.3902 12.0356 23.9325 13.047 24.293C13.9309 23.4062 14.6548 22.3734 15.187 21.24C11.9677 21.3468 8.82412 20.2509 6.36895 18.166L4.69995 19.131C4.96071 20.0883 5.34175 21.0086 5.83395 21.87Z" fill="#7B4AE2" fill-opacity="0.501961"/>
<path d="M5.83295 10.13C5.34148 10.9899 4.96079 11.9085 4.69995 12.864L7.34795 14.393C7.15116 15.4504 7.14946 16.5349 7.34295 17.593C8.55287 17.9152 9.80936 18.0258 11.057 17.92C9.35173 15.1847 8.72708 11.9121 9.30495 8.74099L7.63895 7.77899C6.94003 8.4832 6.3332 9.27317 5.83295 10.13Z" fill="#350E88" fill-opacity="0.501961"/>
<path d="M16 4.25897C15.0088 4.26182 14.0219 4.39017 13.063 4.64097V7.69997C12.0503 8.05787 11.1116 8.59773 10.293 9.29297C10.619 10.5019 11.1515 11.6454 11.867 12.673C13.384 9.83153 15.9048 7.65688 18.938 6.57297V4.64797C17.979 4.39473 16.9918 4.26402 16 4.25897Z" fill="#7B4AE2" fill-opacity="0.501961"/>
</g>
<defs>
<clipPath id="clip0_57_24">
<rect width="32" height="32" fill="white"/>
</clipPath>
</defs>
</svg>
