<svg width="656" height="654" viewBox="0 0 656 654" fill="none" xmlns="http://www.w3.org/2000/svg">
<g clip-path="url(#clip0_6_86)">
<path d="M565.667 309.713C565.667 167.408 450.231 52.0464 307.834 52.0464C165.436 52.0464 50 167.408 50 309.713C50 452.018 165.436 567.379 307.834 567.379C450.231 567.379 565.667 452.018 565.667 309.713Z" fill="#7B4AE2" fill-opacity="0.2"/>
<g filter="url(#filter0_d_6_86)">
<path d="M570.143 366.92C589.92 366.92 605.953 350.887 605.953 331.11C605.953 311.333 589.92 295.3 570.143 295.3C550.366 295.3 534.333 311.333 534.333 331.11C534.333 350.887 550.366 366.92 570.143 366.92Z" fill="#090E16"/>
</g>
<g filter="url(#filter1_d_6_86)">
<path d="M521.81 526.62C541.588 526.62 557.62 510.588 557.62 490.81C557.62 471.033 541.588 455 521.81 455C502.033 455 486 471.033 486 490.81C486 510.588 502.033 526.62 521.81 526.62Z" fill="#090E16"/>
</g>
<mask id="mask0_6_86" style="mask-type:luminance" maskUnits="userSpaceOnUse" x="552" y="313" width="37" height="37">
<path d="M588.048 313.205H552.238V349.015H588.048V313.205Z" fill="white"/>
</mask>
<g mask="url(#mask0_6_86)">
<path fill-rule="evenodd" clip-rule="evenodd" d="M585.251 313.205H555.036C553.491 313.205 552.238 314.458 552.238 316.003V346.218C552.238 347.763 553.491 349.015 555.036 349.015H585.251C586.796 349.015 588.049 347.763 588.049 346.218V316.003C588.049 314.458 586.796 313.205 585.251 313.205ZM573.293 345.112V341.248C573.994 341.836 574.755 342.277 575.577 342.57C576.399 342.864 577.229 343.011 578.066 343.011C578.558 343.011 578.987 342.967 579.353 342.878C579.72 342.79 580.026 342.667 580.272 342.51C580.517 342.353 580.701 342.168 580.821 341.955C580.942 341.741 581.003 341.51 581.003 341.26C581.003 340.922 580.906 340.621 580.713 340.355C580.519 340.089 580.256 339.844 579.921 339.618C579.587 339.393 579.19 339.176 578.731 338.967C578.272 338.757 577.776 338.544 577.245 338.327C575.891 337.763 574.882 337.075 574.218 336.262C573.553 335.449 573.221 334.467 573.221 333.316C573.221 332.415 573.402 331.64 573.765 330.992C574.127 330.344 574.621 329.811 575.245 329.392C575.869 328.974 576.592 328.666 577.414 328.469C578.236 328.271 579.106 328.173 580.024 328.173C580.926 328.173 581.726 328.227 582.423 328.336C583.119 328.444 583.762 328.611 584.35 328.837V332.447C584.06 332.246 583.744 332.068 583.401 331.916C583.059 331.763 582.706 331.636 582.344 331.535C581.981 331.434 581.621 331.36 581.262 331.312C580.904 331.264 580.564 331.239 580.241 331.239C579.798 331.239 579.396 331.282 579.033 331.366C578.671 331.451 578.364 331.569 578.115 331.722C577.865 331.875 577.672 332.058 577.535 332.272C577.398 332.485 577.329 332.724 577.329 332.99C577.329 333.28 577.406 333.539 577.559 333.769C577.712 333.998 577.929 334.216 578.211 334.421C578.493 334.626 578.836 334.827 579.238 335.024C579.641 335.222 580.096 335.425 580.604 335.634C581.297 335.924 581.919 336.232 582.471 336.558C583.023 336.884 583.496 337.252 583.891 337.663C584.285 338.073 584.587 338.542 584.797 339.069C585.006 339.596 585.111 340.21 585.111 340.91C585.111 341.876 584.928 342.687 584.561 343.343C584.195 343.999 583.697 344.53 583.069 344.937C582.441 345.343 581.71 345.635 580.876 345.812C580.042 345.989 579.162 346.078 578.236 346.078C577.285 346.078 576.381 345.997 575.523 345.836C574.665 345.675 573.922 345.434 573.293 345.112ZM571.822 331.634H566.854V345.798H562.918V331.634H557.974V328.452H571.822V331.634Z" fill="#7B4AE2" fill-opacity="0.5"/>
</g>
<g filter="url(#filter2_d_6_86)">
<path d="M85.8102 275.62C105.588 275.62 121.62 259.588 121.62 239.81C121.62 220.033 105.588 204 85.8102 204C66.0328 204 50 220.033 50 239.81C50 259.588 66.0328 275.62 85.8102 275.62Z" fill="#090E16"/>
</g>
<g filter="url(#filter3_d_6_86)">
<path d="M85.8102 504.79C105.588 504.79 121.62 488.757 121.62 468.98C121.62 449.203 105.588 433.17 85.8102 433.17C66.0328 433.17 50 449.203 50 468.98C50 488.757 66.0328 504.79 85.8102 504.79Z" fill="#090E16"/>
</g>
<g filter="url(#filter4_d_6_86)">
<path d="M464.81 127.62C484.588 127.62 500.62 111.588 500.62 91.8102C500.62 72.0328 484.588 56 464.81 56C445.033 56 429 72.0328 429 91.8102C429 111.588 445.033 127.62 464.81 127.62Z" fill="#090E16"/>
</g>
<path d="M82.9998 446C82.7346 446 82.4803 446.105 82.2928 446.293L61.2928 467.293C61.1053 467.481 61 467.735 61 468C61 468.265 61.1053 468.519 61.2928 468.707L67.2928 474.707C67.4803 474.894 67.7346 475 67.9998 475C68.265 475 68.5193 474.894 68.7068 474.707L95.7068 447.707C95.8466 447.567 95.9418 447.389 95.9803 447.195C96.0189 447.001 95.9991 446.8 95.9234 446.617C95.8477 446.435 95.7196 446.279 95.5552 446.169C95.3908 446.059 95.1975 446 94.9998 446H82.9998ZM83.4139 448H92.5857L67.9998 472.586L63.4139 468L83.4139 448ZM83.9998 465C83.7346 465 83.4803 465.105 83.2928 465.293L71.2928 477.293C71.1053 477.481 71 477.735 71 478C71 478.265 71.1053 478.519 71.2928 478.707L77.2928 484.707L83.2928 490.707C83.4803 490.895 83.7346 491 83.9998 491H95.9998C96.1975 491 96.3908 490.941 96.5552 490.831C96.7196 490.721 96.8477 490.565 96.9234 490.383C96.9991 490.2 97.0189 489.999 96.9803 489.805C96.9418 489.611 96.8466 489.433 96.7068 489.293L85.4139 478L96.7068 466.707C96.8466 466.567 96.9418 466.389 96.9803 466.195C97.0189 466.001 96.9991 465.8 96.9234 465.617C96.8477 465.435 96.7196 465.279 96.5552 465.169C96.3908 465.059 96.1975 465 95.9998 465H83.9998ZM84.4139 467H93.5857L77.9998 482.586L73.4139 478L84.4139 467ZM83.9998 479.414L93.5857 489H84.4139L79.4139 484L83.9998 479.414Z" fill="#7B4AE2"/>
<g filter="url(#filter5_f_6_86)">
<path d="M309.624 560.296C450.538 560.296 564.772 446.062 564.772 305.148C564.772 164.234 450.538 50 309.624 50C168.71 50 54.476 164.234 54.476 305.148C54.476 446.062 168.71 560.296 309.624 560.296Z" fill="#7B4AE2" fill-opacity="0.2"/>
</g>
<g filter="url(#filter6_i_6_86)">
<path fill-rule="evenodd" clip-rule="evenodd" d="M262.636 404.465C299.391 424.056 340.608 421.88 372.901 404.463V447.383L373.266 447.373V472.573H262.636V404.465Z" fill="#DA915D"/>
<path fill-rule="evenodd" clip-rule="evenodd" d="M262.635 440.226C299.39 459.819 340.607 457.642 372.901 440.226V467.595L397.734 466.977L398.042 466.988C398.042 532.959 240.326 542.834 240.326 466.889L240.942 466.861L262.635 466.972V440.226Z" fill="#F4AC79"/>
<path fill-rule="evenodd" clip-rule="evenodd" d="M198.067 169.098C285.781 113.249 397.996 133.109 435.909 169.937C446.87 196.314 447.645 221.755 444.42 249.065C451.825 243.751 460.631 244.967 467.569 249.916C470.38 272.577 468.113 313.095 434.373 315.04C422.757 459.646 235.785 483.131 207.015 320.999C173.575 319.845 166.527 273.364 168.616 251.608C176.639 245.504 185.801 248.576 191.487 251.307L198.067 169.098Z" fill="#F4AC79"/>
<path fill-rule="evenodd" clip-rule="evenodd" d="M185.039 230.339C185.499 231.604 184.002 232.87 179.511 235.172C170.215 239.815 169.4 240.78 169.377 248.053V248.405C169.377 258.185 170.874 260.715 177.322 261.637C183.887 262.558 188.034 264.053 189.186 265.894C189.645 266.7 190.107 270.382 190.107 274.179C190.107 282.349 192.64 293.856 195.75 299.839C204.502 316.87 227.304 325.5 254.943 322.278C268.533 320.551 276.479 317.905 285.116 312.151C298.015 303.522 304.003 292.475 304.924 275.1C305.616 264.513 305.616 264.513 309.071 263.362C313.562 261.752 324.733 261.752 329.34 263.362C332.909 264.628 332.909 264.628 332.909 272.799C332.909 282.234 335.328 293.511 338.552 299.84C347.305 316.87 370.107 325.5 397.631 322.278C411.336 320.552 419.282 317.905 427.92 312.153C440.818 303.523 446.807 292.131 447.958 274.295C448.764 262.558 448.189 263.133 460.857 261.522C467.305 260.717 468.803 258.185 468.803 248.289C468.803 240.464 467.536 238.97 456.826 234.367L450.376 231.604L440.357 228.499L432.987 226.888C428.956 226.082 423.774 225.391 421.585 225.276C419.282 225.276 413.525 223.204 407.767 220.329C398.207 215.61 397.747 215.495 386.461 215.495C373.563 215.495 364.464 218.142 357.093 223.896C354.906 225.621 350.299 227.807 347.074 228.613C343.734 229.419 337.516 231.605 333.255 233.446C322.084 238.164 316.326 237.934 302.046 232.18C295.827 229.65 289.953 227.577 289.148 227.577C288.34 227.577 285.692 225.967 283.274 224.011C275.673 218.027 267.151 215.495 254.022 215.495C242.851 215.495 242.161 215.726 232.257 220.444C225.577 223.666 220.394 225.276 217.285 225.276C214.75 225.391 209.223 226.082 205.077 227.003L185.039 230.339ZM277.17 245.183C290.988 249.67 295.249 255.768 295.365 271.187C295.48 279.358 295.02 282.005 292.832 286.491C285.232 302.026 263.58 310.772 237.898 308.815C218.206 307.204 208.071 301.681 202.659 289.484C199.204 281.544 198.743 262.558 201.967 256.689C204.962 251.165 210.721 247.369 220.163 244.837C227.534 242.881 231.565 242.651 249.991 242.881C265.883 243.226 272.794 243.802 277.17 245.183ZM419.972 245.183C433.793 249.67 438.053 255.768 438.169 271.187C438.284 279.358 437.823 282.005 435.635 286.491C428.034 302.026 406.383 310.772 380.701 308.815C361.009 307.204 350.874 301.681 345.461 289.484C342.006 281.544 341.546 262.558 344.77 256.689C347.765 251.165 353.523 247.369 362.966 244.837C370.337 242.881 374.367 242.651 392.793 242.881C408.686 243.226 415.596 243.802 419.972 245.183Z" fill="#A66F49"/>
<path fill-rule="evenodd" clip-rule="evenodd" d="M280.976 59.4633L265.003 63.3978C251.318 67.9458 241.807 73.8849 234.444 79.406C228.504 83.8603 220.22 91.3546 214.192 98.0349L209.347 103.417L203.446 110.867C203.446 110.867 194.633 123.495 192.36 131.458C192.36 131.458 186.115 151.532 184.347 165.938C182.966 180.666 183.426 221.746 185.039 226.003C185.499 227.269 184.002 228.535 179.511 230.836C170.067 235.554 169.377 236.474 169.377 244.069C169.377 253.85 170.874 256.381 177.323 257.302C183.887 258.222 188.033 259.718 189.185 261.559C189.645 262.365 190.106 266.047 190.106 269.844C190.106 278.014 192.64 289.521 195.749 295.504C204.502 312.535 227.304 321.164 254.944 317.943C268.533 316.217 276.479 313.57 285.116 307.817C298.015 299.187 304.003 288.14 304.925 270.765C305.616 260.178 305.616 260.178 309.071 259.028C313.562 257.417 324.733 257.417 329.339 259.028C332.91 260.294 332.91 260.294 332.91 268.464C332.91 277.9 335.328 289.176 338.553 295.505C347.305 312.535 370.107 321.165 397.631 317.944C411.336 316.217 419.282 313.571 427.92 307.818C440.818 299.188 446.807 287.796 447.958 269.96C448.764 258.223 448.189 258.799 460.857 257.187C467.306 256.382 468.803 253.85 468.803 243.955C468.803 236.13 467.536 234.634 456.826 230.032L450.377 227.27V215.763C450.261 196.086 447.498 182.163 442.66 177.675C441.048 176.18 437.478 173.878 434.599 172.497C430.108 170.311 429.187 170.196 427.805 171.692C426.423 173.073 426.768 174.339 430.223 181.243C434.484 189.758 438.284 204.141 439.551 216.569L440.357 224.164L432.987 222.552C428.956 221.747 423.774 221.057 421.585 220.942C419.282 220.942 413.524 218.87 407.766 215.994C398.207 211.276 397.747 211.16 386.461 211.16C373.562 211.16 364.464 213.807 357.094 219.56C354.906 221.287 350.299 223.473 347.075 224.279C343.735 225.084 337.516 227.27 333.255 229.111C322.084 233.829 316.326 233.599 302.045 227.845C295.827 225.314 289.953 223.243 289.147 223.243C288.341 223.243 285.692 221.632 283.274 219.676C275.673 213.692 267.151 211.16 254.022 211.16C242.851 211.16 242.16 211.391 232.256 216.108C225.576 219.33 220.394 220.942 217.285 220.942C214.751 221.057 209.223 221.747 205.078 222.667C193.331 225.199 194.252 226.695 195.173 207.363C195.864 190.794 198.052 176.756 200.586 171.922C203.465 166.514 226.267 154.892 248.84 147.298C276.825 137.977 308.264 134.41 343.735 136.827C374.138 138.783 382.2 141.314 415.828 159.38C427.574 165.709 438.515 170.772 441.048 171.117C445.195 171.692 445.54 171.462 446.806 168.009C449.571 160.07 447.382 140.048 442.776 130.958C436.043 117.898 423.779 106.185 424.053 104.688C420.815 100.258 403.924 87.0587 403.702 87.8966C403.616 87.3507 384.185 77.5699 372.41 71.0073C372.41 71.0073 369.886 69.7289 360.6 65.6408C357.578 64.4387 344.955 60.3216 339.703 59.4973C339.06 59.996 336.167 57.8881 328.36 57.1226C323.103 55.5289 303.897 54.9438 289.695 57.3095L280.976 59.4633ZM277.169 240.847C290.989 245.335 295.25 251.434 295.365 266.853C295.481 275.022 295.02 277.669 292.832 282.157C285.231 297.691 263.58 306.436 237.898 304.48C218.206 302.869 208.071 297.346 202.659 285.148C199.204 277.209 198.743 258.222 201.967 252.354C204.962 246.831 210.72 243.034 220.163 240.502C227.534 238.546 231.565 238.315 249.991 238.546C265.883 238.891 272.793 239.466 277.169 240.847ZM419.972 240.847C433.792 245.335 438.053 251.434 438.168 266.853C438.284 275.022 437.823 277.669 435.635 282.157C428.034 297.691 406.383 306.436 380.701 304.48C361.009 302.869 350.874 297.346 345.462 285.148C342.007 277.209 341.546 258.222 344.77 252.354C347.765 246.831 353.523 243.034 362.966 240.502C370.337 238.546 374.368 238.315 392.794 238.546C408.686 238.891 415.596 239.466 419.972 240.847Z" fill="#2C1B18"/>
<path fill-rule="evenodd" clip-rule="evenodd" d="M240.087 254.771C233.983 257.647 226.957 264.897 226.957 268.349C226.957 270.995 228.8 270.995 232.37 268.119C241.698 260.754 261.507 260.754 271.641 268.003C273.599 269.269 275.672 270.419 276.363 270.419C278.781 270.419 277.63 266.277 273.945 261.904C269.108 255.921 260.471 252.009 252.293 252.009C248.032 252.009 244.002 252.93 240.087 254.771Z" fill="#533824"/>
<path fill-rule="evenodd" clip-rule="evenodd" d="M373.677 254.771C367.573 257.647 360.548 264.897 360.548 268.349C360.548 270.995 362.391 270.995 365.961 268.119C375.289 260.754 395.097 260.754 405.232 268.003C407.189 269.269 409.262 270.419 409.954 270.419C412.372 270.419 411.22 266.277 407.535 261.904C402.698 255.921 394.061 252.009 385.884 252.009C381.623 252.009 377.593 252.93 373.677 254.771Z" fill="#533824"/>
<path fill-rule="evenodd" clip-rule="evenodd" d="M292.256 309.773C293.523 314.721 297.208 318.634 303.657 321.741C308.84 324.272 311.488 324.848 319.089 324.848C326.69 324.848 329.339 324.272 334.521 321.741C340.97 318.634 344.655 314.722 345.922 309.773L346.498 307.242H319.089H291.68L292.256 309.773Z" fill="#AF754C"/>
<path fill-rule="evenodd" clip-rule="evenodd" d="M185.039 226.003C185.499 227.269 184.002 228.535 179.511 230.836C170.215 235.479 169.4 236.446 169.377 243.718V244.07C169.377 253.85 170.874 256.381 177.322 257.302C183.887 258.222 188.034 259.718 189.186 261.559C189.645 262.365 190.107 266.047 190.107 269.844C190.107 278.014 192.64 289.522 195.75 295.504C204.502 312.535 227.304 321.164 254.943 317.943C268.533 316.216 276.479 313.57 285.116 307.817C298.015 299.187 304.003 288.141 304.924 270.765C305.616 260.178 305.616 260.178 309.071 259.028C313.562 257.418 324.733 257.418 329.34 259.028C332.909 260.293 332.909 260.293 332.909 268.464C332.909 277.899 335.328 289.176 338.552 295.506C347.305 312.535 370.107 321.164 397.631 317.943C411.336 316.217 419.282 313.57 427.92 307.818C440.818 299.188 446.807 287.796 447.958 269.96C448.764 258.222 448.189 258.799 460.857 257.187C467.305 256.382 468.803 253.85 468.803 243.954C468.803 236.13 467.536 234.635 456.826 230.032L450.376 227.269L440.357 224.164L432.987 222.552C428.956 221.747 423.774 221.056 421.585 220.941C419.282 220.941 413.525 218.87 407.767 215.994C398.207 211.276 397.747 211.16 386.461 211.16C373.563 211.16 364.464 213.807 357.093 219.561C354.906 221.286 350.299 223.473 347.074 224.278C343.734 225.084 337.516 227.27 333.255 229.111C322.084 233.829 316.326 233.599 302.046 227.845C295.827 225.315 289.953 223.242 289.148 223.242C288.34 223.242 285.692 221.632 283.274 219.676C275.673 213.692 267.151 211.16 254.022 211.16C242.851 211.16 242.161 211.391 232.257 216.109C225.577 219.331 220.394 220.941 217.285 220.941C214.75 221.056 209.223 221.747 205.077 222.667L185.039 226.003ZM277.17 240.848C290.988 245.336 295.249 251.434 295.365 266.853C295.48 275.023 295.02 277.67 292.832 282.156C285.232 297.691 263.58 306.437 237.898 304.479C218.206 302.869 208.071 297.346 202.659 285.149C199.204 277.209 198.743 258.222 201.967 252.354C204.962 246.83 210.721 243.034 220.163 240.502C227.534 238.546 231.565 238.316 249.991 238.546C265.883 238.89 272.794 239.467 277.17 240.848ZM419.972 240.848C433.793 245.336 438.053 251.434 438.169 266.853C438.284 275.023 437.823 277.67 435.635 282.156C428.034 297.691 406.383 306.437 380.701 304.479C361.009 302.869 350.874 297.346 345.461 285.149C342.006 277.209 341.546 258.222 344.77 252.354C347.765 246.83 353.523 243.034 362.966 240.502C370.337 238.546 374.367 238.316 392.793 238.546C408.686 238.89 415.596 239.467 419.972 240.848Z" fill="#090E16"/>
<path fill-rule="evenodd" clip-rule="evenodd" d="M286.958 356.03C288.455 365.581 295.711 375.362 304.694 379.965C311.258 383.417 323.35 384.107 330.26 381.461C340.625 377.434 349.608 366.617 351.22 356.03H286.958Z" fill="#3E291B"/>
<path fill-rule="evenodd" clip-rule="evenodd" d="M285.974 332.045C284.22 332.682 279.915 334.752 276.407 336.744C272.899 338.655 268.913 340.727 267.558 341.285C264.768 342.399 256.557 342.718 253.926 341.842C252.411 341.363 252.092 341.523 252.092 343.036C252.092 345.506 257.275 350.126 262.935 352.835C270.269 356.339 279.835 355.622 291.794 350.604C296.41 349.244 303.087 345.603 308.455 343.754C320.283 339.575 326.325 341.973 336.996 346.542L346.323 350.604C358.282 355.622 367.848 356.339 375.183 352.835C380.923 350.126 386.264 345.267 385.866 343.196C385.706 342.399 384.988 341.922 384.351 342.081C383.713 342.24 380.763 342.32 377.734 342.32C372.95 342.24 371.515 341.842 365.776 338.895C350.23 330.77 352.462 331.407 340.982 331.407C331.814 331.407 329.98 331.725 324.879 333.558L319.058 335.628L313.318 333.558C306.303 331.088 291.395 330.292 285.974 332.045Z" fill="#2C1B18" fill-opacity="0.301961"/>
<path d="M359.721 578.002L367.116 571.994C368.83 570.602 371.349 570.861 372.742 572.574C374.136 574.286 373.876 576.802 372.162 578.195L368.583 581.102L394.568 602.978C396.281 604.37 396.541 606.887 395.148 608.599C394.357 609.57 393.205 610.074 392.043 610.074C391.156 610.074 390.263 609.781 389.522 609.179L359.721 584.202C358.787 583.443 358.245 582.305 358.245 581.102C358.245 579.899 358.787 578.76 359.721 578.002Z" fill="#7B4AE2"/>
<path d="M392.56 541.293C394.683 541.31 396.391 543.043 396.374 545.165L396.044 606.263C396.027 608.384 394.291 610.091 392.168 610.074C391.63 610.07 391.12 609.955 390.656 609.752C389.291 609.154 388.341 607.786 388.354 606.201L388.685 545.104C388.702 542.982 390.437 541.276 392.56 541.293Z" fill="#7B4AE2"/>
<path d="M409.437 583.321L412.169 581.102L402.441 573.198C400.727 571.806 400.468 569.29 401.861 567.577C403.254 565.865 405.773 565.606 407.487 566.998L421.03 578.002C421.965 578.76 422.507 579.899 422.507 581.102C422.507 582.305 421.965 583.443 421.03 584.202L414.483 589.522C413.742 590.123 412.849 590.417 411.963 590.417C410.8 590.417 409.648 589.913 408.857 588.942C407.464 587.23 407.724 584.713 409.437 583.321Z" fill="#C83267"/>
<path fill-rule="evenodd" clip-rule="evenodd" d="M239.624 466.93C205.652 470.236 174.789 482.889 149.107 503.977C127.008 522.046 120.843 536.407 104.663 556.86C137.629 591.033 181.958 619.988 230.298 635.98C262.543 646.58 284.54 650 319.088 650C353.639 650 375.634 646.58 407.881 635.98C456.649 620.396 497.728 594.859 534.759 558.205C509.396 525.495 498.957 504.057 458.091 483.914C440.931 475.365 420.778 469.21 405.346 467.614L398.078 466.959L397.733 466.952L396.939 472.402C393.485 498.392 360.895 517.542 320.241 517.542C279.589 517.542 247.573 498.619 243.426 472.288C242.621 467.045 242.274 466.588 239.626 466.93H239.624Z" fill="#090E16"/>
<path fill-rule="evenodd" clip-rule="evenodd" d="M266.874 419.19L258.379 413.387L246.024 402.944L240.459 396.905L233.756 388.11C230.444 384.106 225.663 376.545 218.828 362.305C214.776 353.864 205.757 322.17 207.144 321.502C210.288 319.988 221.808 365.566 238.768 377.934C238.768 377.934 243.531 381.979 254.151 389.214C254.151 389.214 258.852 391.378 265.694 390.9C268.539 390.702 276.84 354.264 279.345 357.866C281.934 361.587 280.811 396.155 295.169 405.125C300.377 408.378 305.769 377.54 306.745 384.6C313.818 390.001 326.492 389.448 336.065 383.62C338.666 399.095 341.258 406.933 344.954 404.892C357.334 395.586 357.706 360.707 359.548 357.214C363.805 355.414 364.65 389.497 374.757 390.635C381.374 391.38 397.333 376.05 404.282 366.202C419.103 345.196 431.078 313.699 433.868 315.042C434.583 315.382 432.518 335.446 424.752 357.099C422.145 364.367 416.305 374.816 414.002 378.673C411.517 382.834 407.541 388.531 403.454 393.404C400.308 397.155 397.096 400.191 394.447 403.059C387.73 410.329 374.75 418.085 373.078 418.923L361.693 424.803C337 437.882 289.396 434.799 266.874 419.19Z" fill="#2C1B18" fill-opacity="0.501961"/>
<path d="M386.489 560.392L390.339 557.264C391.231 556.539 392.542 556.675 393.267 557.566C393.993 558.457 393.858 559.768 392.965 560.492L391.103 562.006L404.628 573.396C405.521 574.12 405.656 575.431 404.93 576.322C404.519 576.828 403.919 577.09 403.314 577.09C402.853 577.09 402.388 576.938 402.002 576.624L386.489 563.62C386.003 563.225 385.721 562.632 385.721 562.006C385.721 561.38 386.003 560.787 386.489 560.392Z" fill="white"/>
<path d="M403.584 541.28C404.689 541.289 405.578 542.191 405.569 543.296L405.397 575.106C405.388 576.211 404.485 577.099 403.379 577.09C403.099 577.088 402.834 577.028 402.592 576.923C401.882 576.611 401.387 575.899 401.394 575.074L401.566 543.264C401.575 542.16 402.478 541.271 403.584 541.28Z" fill="white"/>
<path d="M412.369 563.161L413.791 562.006L408.727 557.891C407.835 557.167 407.7 555.856 408.425 554.965C409.15 554.073 410.461 553.938 411.353 554.663L418.404 560.392C418.89 560.787 419.172 561.38 419.172 562.006C419.172 562.632 418.89 563.225 418.404 563.62L414.996 566.39C414.609 566.703 414.145 566.856 413.684 566.856C413.078 566.856 412.478 566.594 412.067 566.088C411.342 565.196 411.477 563.886 412.369 563.161Z" fill="#7B4AE2"/>
</g>
<path d="M86.007 261.419C85.433 261.419 84.864 261.269 84.361 260.979L79.121 257.876C78.338 257.438 78.72 257.283 78.978 257.194C80.022 256.829 80.233 256.746 81.347 256.113C81.464 256.046 81.617 256.07 81.737 256.141L85.763 258.53C85.908 258.609 86.115 258.609 86.249 258.53L101.946 249.469C102.091 249.386 102.186 249.218 102.186 249.045V230.932C102.186 230.751 102.092 230.59 101.943 230.5L86.253 221.446C86.108 221.36 85.915 221.36 85.77 221.446L70.082 230.499C69.93 230.585 69.833 230.754 69.833 230.927V249.041C69.833 249.214 69.927 249.379 70.077 249.461L74.376 251.944C76.71 253.111 78.136 251.736 78.136 250.353V232.476C78.136 232.221 78.336 232.024 78.592 232.024H80.58C80.828 232.024 81.032 232.22 81.032 232.476V250.362C81.032 253.474 79.335 255.262 76.384 255.262C75.476 255.262 74.761 255.262 72.765 254.28L68.647 251.907C67.629 251.317 67 250.216 67 249.042V230.928C67 229.749 67.629 228.649 68.646 228.067L84.36 219.002C85.354 218.44 86.674 218.44 87.661 219.002L103.355 228.071C104.367 228.656 105 229.753 105 230.932V249.046C105 250.221 104.367 251.317 103.354 251.907L87.66 260.971C87.157 261.262 86.587 261.411 86.006 261.411" fill="#7B4AE2"/>
<path d="M90.856 248.937C83.988 248.937 82.548 245.784 82.548 243.14C82.548 242.889 82.751 242.688 83.003 242.688H85.031C85.255 242.688 85.444 242.851 85.479 243.072C85.785 245.138 86.697 246.18 90.85 246.18C94.158 246.18 95.565 245.433 95.565 243.678C95.565 242.668 95.164 241.918 90.025 241.415C85.726 240.991 83.07 240.044 83.07 236.606C83.07 233.439 85.742 231.553 90.217 231.553C95.243 231.553 97.734 233.298 98.048 237.046C98.06 237.176 98.013 237.301 97.926 237.396C97.84 237.486 97.718 237.541 97.592 237.541H95.553C95.341 237.541 95.156 237.392 95.113 237.187C94.622 235.014 93.435 234.319 90.209 234.319C86.598 234.319 86.178 235.576 86.178 236.519C86.178 237.662 86.673 237.996 91.545 238.641C96.37 239.281 98.661 240.185 98.661 243.576C98.661 246.994 95.808 248.955 90.834 248.955" fill="#7B4AE2"/>
<path d="M464.987 85L459.734 76H443.974L464.987 112L486 76H470.24L464.987 85Z" fill="#7B4AE2"/>
<path d="M470.24 76L464.987 85L459.734 76H452.146L464.987 98L477.828 76H470.24Z" fill="#4B12C4"/>
<path d="M509.191 479L512.191 504L504.172 495.981C502.983 494.792 502.664 492.985 503.376 491.461L509.191 479Z" fill="#592EB4"/>
<path d="M526.51 473.319C525.665 472.474 524.52 472 523.326 472C522.581 472 521.847 472.185 521.191 472.538L509.191 479V499.343C509.191 500.404 509.612 501.421 510.363 502.171L512.191 504H534.191V499L541.191 488L526.51 473.319Z" fill="#7B4AE2"/>
<path d="M509.191 479H530.534C531.595 479 532.612 479.421 533.362 480.172L541.191 488V504H534.191L509.191 479Z" fill="#592EB4"/>
<path d="M534.191 504H512.191L518.191 510H534.191V504Z" fill="#9B72F3"/>
</g>
<defs>
<filter id="filter0_d_6_86" x="484.333" y="249.3" width="171.62" height="171.62" filterUnits="userSpaceOnUse" color-interpolation-filters="sRGB">
<feFlood flood-opacity="0" result="BackgroundImageFix"/>
<feColorMatrix in="SourceAlpha" type="matrix" values="0 0 0 0 0 0 0 0 0 0 0 0 0 0 0 0 0 0 127 0" result="hardAlpha"/>
<feOffset dy="4"/>
<feGaussianBlur stdDeviation="25"/>
<feComposite in2="hardAlpha" operator="out"/>
<feColorMatrix type="matrix" values="0 0 0 0 0 0 0 0 0 0 0 0 0 0 0 0 0 0 0.5 0"/>
<feBlend mode="normal" in2="BackgroundImageFix" result="effect1_dropShadow_6_86"/>
<feBlend mode="normal" in="SourceGraphic" in2="effect1_dropShadow_6_86" result="shape"/>
</filter>
<filter id="filter1_d_6_86" x="436" y="409" width="171.62" height="171.62" filterUnits="userSpaceOnUse" color-interpolation-filters="sRGB">
<feFlood flood-opacity="0" result="BackgroundImageFix"/>
<feColorMatrix in="SourceAlpha" type="matrix" values="0 0 0 0 0 0 0 0 0 0 0 0 0 0 0 0 0 0 127 0" result="hardAlpha"/>
<feOffset dy="4"/>
<feGaussianBlur stdDeviation="25"/>
<feComposite in2="hardAlpha" operator="out"/>
<feColorMatrix type="matrix" values="0 0 0 0 0 0 0 0 0 0 0 0 0 0 0 0 0 0 0.5 0"/>
<feBlend mode="normal" in2="BackgroundImageFix" result="effect1_dropShadow_6_86"/>
<feBlend mode="normal" in="SourceGraphic" in2="effect1_dropShadow_6_86" result="shape"/>
</filter>
<filter id="filter2_d_6_86" x="0" y="158" width="171.62" height="171.62" filterUnits="userSpaceOnUse" color-interpolation-filters="sRGB">
<feFlood flood-opacity="0" result="BackgroundImageFix"/>
<feColorMatrix in="SourceAlpha" type="matrix" values="0 0 0 0 0 0 0 0 0 0 0 0 0 0 0 0 0 0 127 0" result="hardAlpha"/>
<feOffset dy="4"/>
<feGaussianBlur stdDeviation="25"/>
<feComposite in2="hardAlpha" operator="out"/>
<feColorMatrix type="matrix" values="0 0 0 0 0 0 0 0 0 0 0 0 0 0 0 0 0 0 0.5 0"/>
<feBlend mode="normal" in2="BackgroundImageFix" result="effect1_dropShadow_6_86"/>
<feBlend mode="normal" in="SourceGraphic" in2="effect1_dropShadow_6_86" result="shape"/>
</filter>
<filter id="filter3_d_6_86" x="0" y="387.17" width="171.62" height="171.62" filterUnits="userSpaceOnUse" color-interpolation-filters="sRGB">
<feFlood flood-opacity="0" result="BackgroundImageFix"/>
<feColorMatrix in="SourceAlpha" type="matrix" values="0 0 0 0 0 0 0 0 0 0 0 0 0 0 0 0 0 0 127 0" result="hardAlpha"/>
<feOffset dy="4"/>
<feGaussianBlur stdDeviation="25"/>
<feComposite in2="hardAlpha" operator="out"/>
<feColorMatrix type="matrix" values="0 0 0 0 0 0 0 0 0 0 0 0 0 0 0 0 0 0 0.5 0"/>
<feBlend mode="normal" in2="BackgroundImageFix" result="effect1_dropShadow_6_86"/>
<feBlend mode="normal" in="SourceGraphic" in2="effect1_dropShadow_6_86" result="shape"/>
</filter>
<filter id="filter4_d_6_86" x="379" y="10" width="171.62" height="171.62" filterUnits="userSpaceOnUse" color-interpolation-filters="sRGB">
<feFlood flood-opacity="0" result="BackgroundImageFix"/>
<feColorMatrix in="SourceAlpha" type="matrix" values="0 0 0 0 0 0 0 0 0 0 0 0 0 0 0 0 0 0 127 0" result="hardAlpha"/>
<feOffset dy="4"/>
<feGaussianBlur stdDeviation="25"/>
<feComposite in2="hardAlpha" operator="out"/>
<feColorMatrix type="matrix" values="0 0 0 0 0 0 0 0 0 0 0 0 0 0 0 0 0 0 0.5 0"/>
<feBlend mode="normal" in2="BackgroundImageFix" result="effect1_dropShadow_6_86"/>
<feBlend mode="normal" in="SourceGraphic" in2="effect1_dropShadow_6_86" result="shape"/>
</filter>
<filter id="filter5_f_6_86" x="4.476" y="3.05176e-05" width="610.296" height="610.296" filterUnits="userSpaceOnUse" color-interpolation-filters="sRGB">
<feFlood flood-opacity="0" result="BackgroundImageFix"/>
<feBlend mode="normal" in="SourceGraphic" in2="BackgroundImageFix" result="shape"/>
<feGaussianBlur stdDeviation="25" result="effect1_foregroundBlur_6_86"/>
</filter>
<filter id="filter6_i_6_86" x="104.663" y="55.7275" width="430.096" height="598.272" filterUnits="userSpaceOnUse" color-interpolation-filters="sRGB">
<feFlood flood-opacity="0" result="BackgroundImageFix"/>
<feBlend mode="normal" in="SourceGraphic" in2="BackgroundImageFix" result="shape"/>
<feColorMatrix in="SourceAlpha" type="matrix" values="0 0 0 0 0 0 0 0 0 0 0 0 0 0 0 0 0 0 127 0" result="hardAlpha"/>
<feOffset dy="4"/>
<feGaussianBlur stdDeviation="2"/>
<feComposite in2="hardAlpha" operator="arithmetic" k2="-1" k3="1"/>
<feColorMatrix type="matrix" values="0 0 0 0 0 0 0 0 0 0 0 0 0 0 0 0 0 0 0.25 0"/>
<feBlend mode="normal" in2="shape" result="effect1_innerShadow_6_86"/>
</filter>
<clipPath id="clip0_6_86">
<rect width="655.953" height="654" fill="white"/>
</clipPath>
</defs>
</svg>
