<svg width="64" height="64" viewBox="0 0 64 64" fill="none" xmlns="http://www.w3.org/2000/svg">
<path d="M10 12H54V42C54 42.5304 53.7893 43.0391 53.4142 43.4142C53.0391 43.7893 52.5304 44 52 44H42C41.4696 44 40.9609 43.7893 40.5858 43.4142C40.2107 43.0391 40 42.5304 40 42V36H24V50C24 50.5304 23.7893 51.0391 23.4142 51.4142C23.0391 51.7893 22.5304 52 22 52H12C11.4696 52 10.9609 51.7893 10.5858 51.4142C10.2107 51.0391 10 50.5304 10 50V12Z" stroke="#7B4AE2" stroke-linecap="round" stroke-linejoin="round"/>
<path d="M24 28H10" stroke="#7B4AE2" stroke-linecap="round" stroke-linejoin="round"/>
<path d="M24 12V36" stroke="#7B4AE2" stroke-linecap="round" stroke-linejoin="round"/>
<path d="M40 28H54" stroke="#7B4AE2" stroke-linecap="round" stroke-linejoin="round"/>
<path d="M40 12V36" stroke="#7B4AE2" stroke-linecap="round" stroke-linejoin="round"/>
<g filter="url(#filter0_d_25_8)">
<path d="M32 52C43.0457 52 52 43.0457 52 32C52 20.9543 43.0457 12 32 12C20.9543 12 12 20.9543 12 32C12 43.0457 20.9543 52 32 52Z" fill="#7B4AE2" fill-opacity="0.2"/>
</g>
<defs>
<filter id="filter0_d_25_8" x="8" y="12" width="48" height="48" filterUnits="userSpaceOnUse" color-interpolation-filters="sRGB">
<feFlood flood-opacity="0" result="BackgroundImageFix"/>
<feColorMatrix in="SourceAlpha" type="matrix" values="0 0 0 0 0 0 0 0 0 0 0 0 0 0 0 0 0 0 127 0" result="hardAlpha"/>
<feOffset dy="4"/>
<feGaussianBlur stdDeviation="2"/>
<feComposite in2="hardAlpha" operator="out"/>
<feColorMatrix type="matrix" values="0 0 0 0 0 0 0 0 0 0 0 0 0 0 0 0 0 0 0.25 0"/>
<feBlend mode="normal" in2="BackgroundImageFix" result="effect1_dropShadow_25_8"/>
<feBlend mode="normal" in="SourceGraphic" in2="effect1_dropShadow_25_8" result="shape"/>
</filter>
</defs>
</svg>
