<svg width="561" height="553" viewBox="0 0 561 553" fill="none" xmlns="http://www.w3.org/2000/svg">
<path d="M0 267.4V266.625C7.025 176 39.85 108.025 96.875 65.05C153.125 21.3 214.075 0.200014 280.475 0.200014C350 -0.574986 414.85 22.85 472.675 69.725C531.275 115.825 560.175 184.575 560.175 273.625V279.1C560.175 368.95 531.275 436.125 472.675 482.225C414.075 529.1 349.225 552.55 279.7 552.55H276.575C208.6 551.775 146.1 528.325 88.3 481.45C30.475 435.35 0.8 364.25 0.025 267.375L0 267.4ZM263.275 144.75V21.3H244.525C240.625 26 237.5 31.45 234.375 36.15C231.25 40.85 228.125 45.525 225 51C221.875 55.7 217.975 61.95 215.625 66.625C212.5 71.325 210.15 76 207.8 81.475C203.1 89.3 199.2 97.1 196.075 104.125C192.175 111.15 189.05 118.2 186.7 124.45C191.4 127.575 196.85 131.475 203.1 133.825C210.125 136.175 217.175 138.525 224.2 140.075C232.025 141.65 239.05 142.425 245.3 143.2C252.325 143.975 258.575 144.775 263.275 144.775V144.75ZM296.1 21.325V143.975C300 143.975 304.7 144.75 309.375 143.975C314.075 143.975 319.525 143.2 324.225 142.4C332.825 140.825 342.975 138.5 350.8 136.15C359.4 133.025 367.2 129.125 372.675 124.425C363.3 101.775 353.15 83.8 342.975 66.6C332.8 49.4 321.1 34.575 308.6 22.075V21.3H296.1V21.325ZM211.725 28.35V27.575C206.25 29.925 200.775 33.825 194.525 36.175C189.05 38.525 182.025 41.65 176.55 44.775C165.6 50.25 154.675 56.5 143.725 63.525C133.575 70.55 123.4 78.375 114.825 86.175C117.95 89.3 121.85 92.425 124.975 94.775C128.1 97.125 132 100.25 135.925 103.375C139.05 104.95 142.95 107.275 146.875 110.4C150.775 112.75 155.475 115.875 160.15 119C166.4 104.925 172.65 90.1 180.475 76.8C188.3 62.725 196.875 49.45 205.475 37.725C206.25 36.15 207.05 34.6 208.6 33.025C209.375 32.25 210.175 29.925 211.725 28.35ZM450.775 86.15V85.375C431.25 70.525 414.05 58.025 396.875 50.225C379.7 42.425 362.5 34.6 346.875 28.35C359.375 40.85 370.325 56.475 377.35 71.325C385.175 86.95 392.975 103.35 399.225 118.975C402.35 117.4 406.25 115.85 410.95 112.725C414.85 110.375 420.325 108.025 425.025 105.7C429.725 102.575 433.625 99.45 438.3 96.325C443 92.425 447.675 89.3 450.8 86.175L450.775 86.15ZM437.5 260.375H527.35C527.35 231.475 521.1 204.125 509.375 176C498.425 148.65 482.8 126 463.275 106.475V105.7C459.375 111.95 453.9 117.425 448.425 121.325C442.175 125.225 436.7 128.35 430.45 131.475C426.55 133.825 422.625 136.95 418.725 138.5C414.825 140.85 409.35 142.4 405.45 144.75C408.575 151 411.7 158.025 414.825 164.275C417.175 171.3 421.075 179.125 422.65 186.15C427.35 198.65 430.475 211.925 433.6 225.225C435.95 236.95 437.5 249.45 437.5 260.375ZM154.7 144.75V143.975C148.45 140.85 141.425 138.5 135.95 135.375C130.475 131.475 125 127.55 120.325 124.425C115.625 122.075 110.95 118.95 107.05 115.825C103.15 112.7 100.025 109.575 96.9 106.45C76.575 125.975 61.75 147.85 52.375 173.65C42.225 199.425 35.175 228.35 32.05 259.6H128.15C128.15 237.725 131.275 216.625 136.75 195.525C141.45 173.65 148.45 157.25 154.7 144.75ZM263.275 259.6V169.75C257.025 170.525 249.2 170.525 242.175 169.75C234.35 168.975 226.55 166.625 219.525 164.275C213.275 162.7 205.45 161.15 199.2 158.8C192.175 157.225 185.125 154.1 179.675 150.975C174.975 158.8 171.075 168.175 167.95 178.325C164.05 187.7 161.7 197.85 159.35 207.225C157.775 216.6 157 226.75 156.225 235.35C155.45 243.95 154.65 252.55 154.65 259.575H263.25L263.275 259.6ZM296.1 171.325V259.6H411.725C411.725 254.9 411.725 249.45 410.95 243.2C409.375 237.725 408.6 230.7 407.825 224.45C405.475 215.075 403.125 204.925 400 195.55C396.875 186.95 393.75 178.35 389.85 171.325C388.275 167.425 386.725 162.725 385.15 159.6C382.8 155.7 380.45 153.35 378.9 151C370.3 157.25 358.575 161.15 344.525 164.275C331.25 167.4 315.625 170.525 301.55 171.3H296.075L296.1 171.325ZM128.125 285.375H32.025C32.025 298.65 34.375 313.5 38.275 331.475C42.175 350.225 50 367.425 58.6 386.175C62.5 395.55 67.2 404.925 71.875 414.3C77.35 422.9 83.6 432.275 89.85 440.875C94.55 437.75 99.225 435.4 103.125 433.05C107.825 430.7 113.275 427.575 117.975 425.225C123.45 422.875 128.925 420.525 135.175 417.4C140.65 415.05 147.675 411.925 154.7 408.8C148.45 389.275 141.425 370.525 136.725 349.425C131.25 329.1 128.125 308.8 128.125 286.15V285.375ZM263.275 376.775V285.375H154.675C154.675 291.625 155.45 301 157.025 310.375C157.8 319.75 160.15 329.9 161.725 340.075C164.85 351.025 167.2 361.95 170.325 371.325C173.45 380.7 176.575 388.525 179.7 395.55C193.775 390.075 207.825 386.175 217.2 383.825C227.35 380.7 236.725 378.35 246.1 377.575H254.7C257.825 376.8 260.95 376.8 263.3 376.8L263.275 376.775ZM296.1 285.375V376C301.575 376.775 307.825 377.575 314.075 378.35C321.1 379.125 329.7 380.7 336.725 382.25L348.45 384.6C352.35 386.175 357.05 386.95 360.95 387.725C365.65 389.3 370.325 390.075 375.025 391.625C378.925 393.2 382.85 393.975 385.975 395.525C396.125 369.75 402.375 348.65 406.3 330.675C410.2 313.475 411.775 298.65 411.775 286.15V285.375H296.15H296.1ZM527.35 286.15V285.375H437.5V290.075C436.725 304.925 434.375 322.1 431.25 340.075C428.125 357.275 421.1 377.575 411.725 402.575C424.225 408.825 435.95 415.075 445.325 421.325C454.7 427.575 463.3 434.6 469.55 440.85C482.825 427.575 494.55 409.6 504.7 386.15C514.85 363.5 521.9 340.05 525.8 315.05C526.575 310.35 526.575 305.675 527.375 300.975V286.125L527.35 286.15ZM263.275 523.65V401.775C243.75 404.9 227.325 408.8 214.825 411.925C202.325 415.05 192.95 418.175 186.7 421.3C191.4 433.025 196.075 443.175 200.775 452.55C205.475 461.15 210.925 470.525 215.625 478.325C217.2 481.45 220.325 484.575 222.65 488.475C225 491.6 226.55 495.5 228.9 498.625C231.25 502.525 233.6 507.225 235.925 511.9C239.05 515.8 241.4 520.5 244.525 523.625L263.275 523.65ZM296.1 523.65H314.075C321.1 518.175 328.15 510.375 333.6 501.775C339.85 493.175 346.875 483.025 351.575 474.425C357.05 464.275 362.525 454.9 367.2 445.525C371.875 436.15 375.8 427.55 378.925 421.3C370.325 418.175 358.6 415.05 346.9 411.925C335.2 408.8 318.775 405.675 296.125 402.55V523.65H296.1ZM450.775 459.6V458.825C449.2 456.475 446.075 453.35 443.75 451C441.425 448.65 437.5 445.525 433.6 443.175C430.475 440.825 426.575 438.475 421.875 436.15C417.175 433.825 410.925 430.675 405.475 427.55C402.35 433.8 396.875 444.75 389.075 459.575C382.05 474.425 369.55 492.4 353.925 511.925C373.45 508.8 390.65 501.775 406.275 492.4C423.475 483.8 438.3 472.075 450.8 459.575L450.775 459.6ZM160.15 434.6V433.825C154.675 436.95 146.075 440.85 137.5 444.775C128.125 448.675 117.975 453.375 108.6 459.625C114.075 464.325 119.55 469 124.225 472.125C128.925 476.025 134.375 479.15 139.075 482.275C147.675 487.75 157.825 493.225 167.975 497.9C178.125 502.575 190.625 507.275 206.25 511.975C200.775 505.725 196.875 497.9 192.975 491.65C189.075 485.4 184.375 479.15 180.475 472.9C176.575 466.65 173.45 459.625 170.325 453.375C166.425 447.125 163.3 440.875 160.175 434.625L160.15 434.6Z" fill="white" fill-opacity="0.5"/>
</svg>
