<svg width="64" height="64" viewBox="0 0 64 64" fill="none" xmlns="http://www.w3.org/2000/svg">
<g filter="url(#filter0_d_25_24)">
<path d="M24 54C35.0457 54 44 45.0457 44 34C44 22.9543 35.0457 14 24 14C12.9543 14 4 22.9543 4 34C4 45.0457 12.9543 54 24 54Z" fill="#7B4AE2" fill-opacity="0.2"/>
<path d="M22.6141 11.5856C22.6141 12.673 22.8538 13.1713 23.3334 13.1713C23.717 13.1713 24.0527 12.8542 24.0527 12.4917C24.0527 11.9028 26.1626 11.8122 40.3567 11.8122H56.6608V21.7792V31.7462H54.455C52.5368 31.7462 52.2971 31.6556 52.8246 31.0666C53.1123 30.7042 53.2561 30.0246 53.0643 29.481C52.7766 28.6655 52.393 28.5749 48.7006 28.5749H44.6725V30.1605V31.7462H39.11C34.0749 31.7462 33.5953 31.8368 33.7392 32.5164C33.8831 33.2866 34.8901 33.3319 46.0152 33.4678C53.4959 33.5131 58.0994 33.7396 58.0994 34.0114C58.0994 34.2833 53.5438 34.4645 45.8713 34.4645C35.2737 34.4645 33.6433 34.5551 33.6433 35.1441C33.6433 35.733 35.2737 35.8236 46.7345 35.733L59.7778 35.5971L59.9216 33.8755C60.0655 32.4258 59.9216 32.1086 59.1064 31.8821C58.1473 31.6556 58.0994 31.2932 58.0035 20.9184L57.8596 10.2265L40.2608 10.0906L22.6141 9.99999V11.5856Z" fill="#7B4AE2"/>
<path d="M22.8059 12.0205C21.1275 12.6548 19.7369 14.6935 19.7369 16.5057C19.7369 18.4538 20.6959 19.9035 22.8059 21.1267L24.2924 21.9875H22.71C21.655 21.9875 20.7439 22.35 19.9766 23.1201C18.8258 24.1622 18.7778 24.4793 18.7778 29.7346C18.7778 34.99 18.7299 35.2618 17.6269 36.0773C16.0445 37.2552 15.6129 39.2939 16.572 41.0608C17.2913 42.4652 17.2913 42.5558 15.9006 44.0056C14.51 45.5006 13.7427 47.8565 14.0784 49.4874C14.2223 50.2576 15.2293 50.3029 37 50.3029C58.7707 50.3029 59.7777 50.2576 59.9216 49.4874C60.2573 47.8565 59.49 45.5006 58.0994 44.0056C56.7087 42.5558 56.7087 42.4652 57.428 41.0608C59.49 37.1193 54.4549 33.2684 50.7626 36.032C49.1321 37.2552 48.7006 39.2486 49.6596 41.1061C50.4269 42.5105 50.4269 42.6011 49.228 43.6884L48.0292 44.8664L46.8304 43.6884C45.6316 42.6011 45.6316 42.5105 46.3988 41.1061C47.3579 39.2486 46.9263 37.2552 45.2959 36.032C41.5555 33.2684 36.5684 37.1193 38.6304 41.1061C39.3977 42.5105 39.3977 42.6011 38.1988 43.6884L37 44.8664L35.8012 43.6884C34.6023 42.6011 34.6023 42.5105 35.3696 41.0608C36.4246 39.0674 35.8012 37.0287 33.7871 35.8054C32.2526 34.8993 32.2526 34.8993 32.2047 30.9578V27.0616L34.5064 26.2462C37.3357 25.2495 38.007 24.7058 40.8842 21.1267C44.0012 17.2758 43.9532 15.1918 40.7883 15.1918C39.7333 15.1918 38.9661 15.7808 37.1918 17.9101C34.7462 20.8549 33.6912 21.3533 28.6082 21.8063L25.731 22.0781L27.2176 21.172C29.3755 19.8582 30.2866 18.4538 30.2866 16.4151C30.2866 15.0106 29.9509 14.331 28.6562 13.1078C26.9778 11.5222 25.0597 11.1597 22.8059 12.0205ZM26.5942 13.4703C28.1287 14.1951 28.8 15.2371 28.848 16.6869C28.848 18.4085 26.9298 20.1753 25.0117 20.1753C23.2854 20.1753 21.1755 18.4538 21.1755 17.0493C21.1755 14.0592 24.0527 12.1564 26.5942 13.4703ZM41.5555 17.004C41.6994 17.2305 40.6924 18.8615 39.3018 20.6284C37.1439 23.3467 36.3766 23.9356 34.2187 24.7058C32.8281 25.2042 31.4854 25.6119 31.2456 25.6119C30.9579 25.6119 30.7661 27.6053 30.7661 30.233L30.7181 34.8993L29.1836 35.8054C27.1696 37.0287 26.5462 39.0674 27.6012 41.0608C28.3684 42.5105 28.3684 42.6011 27.1696 43.6884L25.9708 44.8664L24.7719 43.6884C23.5731 42.6011 23.5731 42.5105 24.3404 41.1061C24.8199 40.1547 24.9638 39.158 24.7719 38.2972C24.4363 36.8021 22.4702 35.1259 21.1275 35.1259C20.3123 35.1259 20.2164 34.7181 20.2164 30.0518C20.2164 23.5279 20.3603 23.3467 25.6831 23.3467C29.0877 23.3467 30.4784 23.1654 34.8901 22.2141C35.4175 22.1234 36.8561 20.7643 38.1029 19.2693C40.3567 16.5963 40.9801 16.1432 41.5555 17.004ZM22.2304 37.2552C24.5801 39.2486 21.607 43.2354 18.9696 41.5591C18.1065 41.0155 17.2913 39.2033 17.6269 38.6143C18.9696 36.4397 20.648 35.896 22.2304 37.2552ZM33.2597 37.2552C35.6094 39.2486 32.6363 43.2354 29.9988 41.5591C29.1357 41.0155 28.3205 39.2033 28.6562 38.6143C29.9988 36.4397 31.6772 35.896 33.2597 37.2552ZM44.8164 37.8895C45.5836 38.9315 45.6316 39.2486 45.152 40.1547C44.3848 41.5138 43.7614 41.9216 42.4187 41.9216C40.117 41.9216 39.014 39.0221 40.6924 37.3005C41.7953 36.1679 43.6175 36.4397 44.8164 37.8895ZM55.8456 37.8895C56.6128 38.9315 56.6608 39.2486 56.1813 40.1547C55.414 41.4685 54.7906 41.9216 53.5918 41.9216C51.2421 41.9216 50.0912 39.0221 51.7216 37.3005C52.8245 36.1679 54.6468 36.4397 55.8456 37.8895ZM21.7989 43.6884C23.5731 44.3227 25.0117 45.999 25.0117 47.4487V48.7173H20.4562H15.9006V47.5393C15.9006 45.8178 16.7638 44.6398 18.4421 43.9603C20.3123 43.1901 20.3603 43.1901 21.7989 43.6884ZM33.0678 43.7791C34.7942 44.3227 36.0409 45.9537 36.0409 47.5846V48.7173H31.4854H26.9298V47.5393C26.9298 45.8178 27.793 44.6398 29.4714 43.9603C31.3415 43.1901 31.2456 43.1901 33.0678 43.7791ZM44.0971 43.7791C45.8234 44.3227 47.0702 45.9537 47.0702 47.5846V48.7173H42.5146H37.9591V47.4487C37.9591 45.9537 39.2058 44.368 40.8363 43.7791C42.4187 43.1901 42.3708 43.1901 44.0971 43.7791ZM55.462 43.915C57.2362 44.6398 58.0994 45.8178 58.0994 47.5393V48.7173H53.5438H48.9883V47.4487C49.0362 45.9537 49.8514 44.8664 51.6737 43.9603C53.4 43.1448 53.4479 43.1448 55.462 43.915Z" fill="#7B4AE2"/>
</g>
<defs>
<filter id="filter0_d_25_24" x="0" y="10" width="64" height="52" filterUnits="userSpaceOnUse" color-interpolation-filters="sRGB">
<feFlood flood-opacity="0" result="BackgroundImageFix"/>
<feColorMatrix in="SourceAlpha" type="matrix" values="0 0 0 0 0 0 0 0 0 0 0 0 0 0 0 0 0 0 127 0" result="hardAlpha"/>
<feOffset dy="4"/>
<feGaussianBlur stdDeviation="2"/>
<feComposite in2="hardAlpha" operator="out"/>
<feColorMatrix type="matrix" values="0 0 0 0 0 0 0 0 0 0 0 0 0 0 0 0 0 0 0.25 0"/>
<feBlend mode="normal" in2="BackgroundImageFix" result="effect1_dropShadow_25_24"/>
<feBlend mode="normal" in="SourceGraphic" in2="effect1_dropShadow_25_24" result="shape"/>
</filter>
</defs>
</svg>
